<?xml version="1.0" encoding="UTF-8" standalone="no"?>
<!DOCTYPE svg PUBLIC "-//W3C//DTD SVG 1.1//EN" "http://www.w3.org/Graphics/SVG/1.1/DTD/svg11.dtd">
<!-- Created with Vectornator (http://vectornator.io/) -->
<svg height="100%" stroke-miterlimit="10" style="fill-rule:nonzero;clip-rule:evenodd;stroke-linecap:round;stroke-linejoin:round;" version="1.1" viewBox="0 0 919.41 926.54" width="100%" xml:space="preserve" xmlns="http://www.w3.org/2000/svg" xmlns:vectornator="http://vectornator.io" xmlns:xlink="http://www.w3.org/1999/xlink">
<defs/>
<clipPath id="ArtboardFrame">
<rect height="926.54" width="919.41" x="0" y="0"/>
</clipPath>
<g clip-path="url(#ArtboardFrame)" id="Sans-titre" vectornator:layerName="Sans titre">
<path d="M360.792 141.018C361.123 140.318 361.897 139.397 362.449 138.992C363.481 138.219 363.886 138.219 387.423 138.108L411.329 138.034L411.403 68.4884L524.045 68.5754L524.045 138.034L547.435 138.034C572.704 138.034 572.262 137.998 574.104 139.987C575.283 141.276 575.54 143.744 574.693 145.549C573.736 147.538 471.113 249.645 469.382 250.345C468.571 250.64 467.577 250.75 466.693 250.603C465.44 250.345 459.952 245.004 413.245 198.334C382.561 167.687 360.939 145.843 360.644 145.144C359.944 143.56 359.981 142.528 360.792 141.018Z" fill="#000000" fill-rule="nonzero" opacity="1" stroke="none" vectornator:layerName="path"/>
<path d="M348.984 265.788L348.984 401.194L-0.421909 401.194L-0.421909 326.382L272.328 326.382L272.328 265.788L348.984 265.788Z" fill="#000000" fill-rule="nonzero" opacity="1" stroke="#656565" stroke-linecap="butt" stroke-linejoin="miter" stroke-width="0.269496"/>
<path d="M349.406 629.188L349.406 493.781L0 493.781L0 568.594L272.75 568.594L272.75 629.188L349.406 629.188Z" fill="#000000" fill-rule="nonzero" opacity="1" stroke="#656565" stroke-linecap="butt" stroke-linejoin="miter" stroke-width="0.269496"/>
<path d="M361.774 773.808C362.105 774.507 362.879 775.428 363.431 775.834C364.463 776.607 364.868 776.607 388.406 776.718L412.312 776.791L412.385 846.338L525.027 846.251L525.027 776.791L548.417 776.791C573.686 776.791 573.244 776.828 575.086 774.839C576.265 773.55 576.523 771.082 575.675 769.277C574.718 767.288 472.095 665.181 470.364 664.481C469.553 664.186 468.559 664.076 467.675 664.223C466.422 664.481 460.934 669.822 414.227 716.492C383.543 747.139 361.921 768.982 361.626 769.682C360.927 771.266 360.963 772.297 361.774 773.808Z" fill="#000000" fill-rule="nonzero" opacity="1" stroke="none" vectornator:layerName="path"/>
<path d="M570.056 265.788L570.056 401.194L919.462 401.194L919.462 326.382L646.712 326.382L646.712 265.788L570.056 265.788Z" fill="#000000" fill-rule="nonzero" opacity="1" stroke="#656565" stroke-linecap="butt" stroke-linejoin="miter" stroke-width="0.269496"/>
<path d="M569.634 629.188L569.634 493.781L919.04 493.781L919.04 568.594L646.29 568.594L646.29 629.188L569.634 629.188Z" fill="#000000" fill-rule="nonzero" opacity="1" stroke="#656565" stroke-linecap="butt" stroke-linejoin="miter" stroke-width="0.269496"/>
</g>
</svg>
