<svg id="Draw" xmlns="http://www.w3.org/2000/svg" viewBox="0 0 841.65 250"><defs><style>.cls-1{font-size:151px;font-family:Futura-Bold, Futura;font-weight:700;}.cls-2{fill:red;}</style></defs><text class="cls-1" transform="translate(0 183.55)">JOLI</text><path class="cls-2" d="M693.9,103.45q0-11-13.89-11h-5.44v22H680Q693.9,114.47,693.9,103.45Z" transform="translate(-71.35)"/><path class="cls-2" d="M697.07,139.38q-4.83-2.87-16-2.87h-6.5v24.16h6.5q11.16,0,16-2.86t4.83-9.22Q701.9,142.26,697.07,139.38Z" transform="translate(-71.35)"/><path class="cls-2" d="M423,0V250H913V0Zm85.78,94.84H484.47v88.79h-29.6V94.84H430.56V69.77h78.22Zm112.34,40.92q0,26.58-12.16,38.81T571.59,186.8q-25.22,0-37.45-12.23t-12.23-38.81v-66h29.6v61.91c0,3.32.12,6.72.38,10.2a27.78,27.78,0,0,0,2.26,9.43,15.7,15.7,0,0,0,6,6.87q4.07,2.65,11.47,2.65t11.4-2.65a16.36,16.36,0,0,0,6-6.87,27.13,27.13,0,0,0,2.34-9.43q.38-5.22.37-10.2V69.77h29.45Zm107.89,29a28.93,28.93,0,0,1-7.85,10.42,33.65,33.65,0,0,1-12.31,6.34,58.18,58.18,0,0,1-16.31,2.12H645V69.77h44.09q15.7,0,23.86,7.55t8.15,21.75q0,8.61-3.09,14.27a26,26,0,0,1-9.44,9.58,35.86,35.86,0,0,1,10.79,3.7,23.5,23.5,0,0,1,7.25,6.12,22.82,22.82,0,0,1,4,8.15,37.24,37.24,0,0,1,1.21,9.67A34.22,34.22,0,0,1,729,164.75Zm85.24-69.91H779.06v19h33.22v25.07H779.06v19.63h35.19v25.07H749.47V69.77h64.78Z" transform="translate(-71.35)"/></svg>